<?xml version="1.0" encoding="iso-8859-1"?>
<!-- Generator: Adobe Illustrator 18.0.0, SVG Export Plug-In . SVG Version: 6.00 Build 0)  -->
<!DOCTYPE svg PUBLIC "-//W3C//DTD SVG 1.1//EN" "http://www.w3.org/Graphics/SVG/1.1/DTD/svg11.dtd">
<svg version="1.1" id="Capa_1" xmlns="http://www.w3.org/2000/svg" xmlns:xlink="http://www.w3.org/1999/xlink" x="0px" y="0px"
	 viewBox="0 0 169.465 169.465" style="enable-background:new 0 0 169.465 169.465;" xml:space="preserve">
<g>
	<circle cx="129.322" cy="67.293" r="10.011"/>
	<circle cx="40.143" cy="67.293" r="10.011"/>
	<path d="M139.488,114.236c-2.166-1.343-4.422-2.471-6.75-3.387c0.339-1.21,0.659-2.428,0.951-3.656
		c20.088-2.184,35.776-19.242,35.776-39.901c0-22.134-18.008-40.142-40.143-40.142c-3.795,0-7.464,0.541-10.946,1.53
		C110.411,17.548,100.09,8.128,88.254,1.238c-2.177-1.267-4.866-1.267-7.043,0c-11.836,6.89-22.157,16.31-30.122,27.442
		c-3.482-0.989-7.151-1.53-10.946-1.53C18.008,27.151,0,45.159,0,67.293c0,20.659,15.688,37.717,35.776,39.901
		c0.292,1.227,0.612,2.445,0.951,3.656c-2.327,0.916-4.583,2.044-6.749,3.387c-11.52,7.139-18.834,19.484-19.09,32.216
		c-0.056,2.759,1.515,5.293,4.011,6.471c4.886,2.307,10.273,3.443,15.739,3.443c7.417,0,14.975-2.095,21.606-6.206
		c1.383-0.857,2.685-1.812,3.948-2.812c7.01,8.212,15.431,15.297,25.02,20.878c1.088,0.633,2.305,0.95,3.521,0.95
		s2.433-0.317,3.521-0.95c9.589-5.581,18.009-12.666,25.02-20.878c1.262,1,2.565,1.955,3.947,2.812
		c6.633,4.111,14.19,6.206,21.607,6.206c5.464,0,10.853-1.137,15.738-3.443c2.496-1.178,4.066-3.712,4.011-6.471
		C158.321,133.72,151.006,121.375,139.488,114.236z M155.465,67.293c0,14.415-11.728,26.143-26.143,26.143
		S103.18,81.708,103.18,67.293s11.728-26.142,26.143-26.142S155.465,52.878,155.465,67.293z M14,67.293
		c0-14.415,11.728-26.142,26.143-26.142s26.143,11.727,26.143,26.142S54.558,93.435,40.143,93.435S14,81.708,14,67.293z
		 M44.868,138.261c-5.988,3.712-13.029,4.956-19.321,3.583c1.569-6.244,5.817-11.997,11.806-15.709
		c1.328-0.823,2.705-1.52,4.119-2.101c1.856,4.168,4.005,8.188,6.424,12.036C46.939,136.857,45.937,137.598,44.868,138.261z
		 M84.732,153.959c-8.615-5.6-16-12.674-21.898-20.799c-0.052-0.081-0.11-0.157-0.166-0.236
		c-5.772-8.011-10.085-17.042-12.682-26.714c17.39-4.401,30.298-20.178,30.298-38.917c0-13.255-6.462-25.026-16.397-32.34
		c5.776-7.609,12.839-14.228,20.844-19.445c8.005,5.216,15.068,11.836,20.844,19.445c-9.935,7.314-16.397,19.085-16.397,32.34
		c0,18.739,12.908,34.516,30.298,38.917c-2.598,9.677-6.914,18.713-12.692,26.728c-0.051,0.073-0.106,0.145-0.154,0.219
		C100.734,141.284,93.348,148.359,84.732,153.959z M124.596,138.26c-1.068-0.662-2.07-1.403-3.027-2.19
		c2.419-3.849,4.568-7.869,6.424-12.036c1.414,0.581,2.792,1.278,4.119,2.101c5.989,3.712,10.237,9.465,11.806,15.709
		C137.625,143.216,130.585,141.973,124.596,138.26z"/>
	<path d="M99.593,111.817c-16.458-9.19-29.791,0.001-30.35,0.397l8.084,11.43l-0.086,0.06c0.7-0.462,7.082-4.379,15.526,0.337
		c1.081,0.603,2.251,0.89,3.407,0.89c2.454,0,4.836-1.293,6.118-3.588C104.176,117.966,102.968,113.702,99.593,111.817z"/>
</g>
<g>
</g>
<g>
</g>
<g>
</g>
<g>
</g>
<g>
</g>
<g>
</g>
<g>
</g>
<g>
</g>
<g>
</g>
<g>
</g>
<g>
</g>
<g>
</g>
<g>
</g>
<g>
</g>
<g>
</g>
</svg>
